<svg xmlns="http://www.w3.org/2000/svg" viewBox="0 0 872.38 853.68"><defs><style>.cls-1,.cls-3,.cls-4{fill:none;stroke:#8c6239;stroke-miterlimit:10;}.cls-1{stroke-width:15px;}.cls-2{fill:#31af31;}.cls-3{stroke-width:15.02px;}.cls-4{stroke-width:16.37px;}.cls-5{fill:#8c6239;stroke:#5c5962;stroke-linecap:round;stroke-linejoin:round;stroke-width:11.08px;}.cls-6{fill:#5c5962;}</style></defs><g id="Layer_2" data-name="Layer 2"><g id="Layer_1-2" data-name="Layer 1"><g id="treehouze"><g id="right"><g id="leaf"><line class="cls-1" x1="481.97" y1="426.91" x2="622.21" y2="384.8"/><line class="cls-1" x1="627.27" y1="383.38" x2="830.06" y2="363.66"/><line class="cls-1" x1="622.21" y1="384.8" x2="764.44" y2="464.34"/><circle class="cls-2" cx="762.84" cy="464.34" r="23.49"/><circle class="cls-2" cx="830.06" cy="363.66" r="23.49"/><circle class="cls-2" cx="624.17" cy="387.16" r="23.49"/></g></g><g id="far-right"><g id="event-further-left"><line class="cls-3" x1="539.25" y1="533.57" x2="673.45" y2="549.07"/><circle class="cls-2" cx="678.41" cy="548.82" r="23.49"/></g><line class="cls-3" x1="419.05" y1="577.99" x2="539.25" y2="533.57"/><circle class="cls-2" cx="537.82" cy="534.1" r="23.49"/></g><g id="mid-right"><g id="branch"><line class="cls-1" x1="710.97" y1="223.76" x2="755.15" y2="140.87"/><line class="cls-1" x1="715.86" y1="226.6" x2="846.17" y2="229.02"/><line class="cls-4" x1="522.23" y1="304.01" x2="715.86" y2="226.6"/></g><g id="leaf-2" data-name="leaf"><circle class="cls-2" cx="764.44" cy="130.75" r="23.49"/><circle class="cls-2" cx="848.88" cy="226.6" r="23.49"/><circle class="cls-2" cx="715.86" cy="226.6" r="23.49"/></g></g><g id="mid"><g id="branch-2" data-name="branch"><line class="cls-1" x1="502.19" y1="130.73" x2="502.04" y2="36.8"/><line class="cls-1" x1="507.84" y1="130.93" x2="652.56" y2="53.26"/></g><g id="leaf-3" data-name="leaf"><circle class="cls-2" cx="505.46" cy="23.49" r="23.49"/><circle class="cls-2" cx="654.92" cy="53.26" r="23.49"/></g><line class="cls-4" x1="518.86" y1="309.96" x2="502.19" y2="130.73"/><circle class="cls-2" cx="505.46" cy="129.51" r="23.49"/></g><line class="cls-4" x1="415.66" y1="571.59" x2="518.86" y2="309.96"/><circle class="cls-2" cx="479.15" cy="426.91" r="23.49"/><circle class="cls-2" cx="522.23" cy="301.42" r="23.49"/><g id="mid-left"><g id="branch-3" data-name="branch"><line class="cls-1" x1="306.77" y1="228.06" x2="363.2" y2="30.96"/><line class="cls-1" x1="308.31" y1="231.12" x2="241" y2="97.01"/><line class="cls-4" x1="418.6" y1="579.02" x2="305.94" y2="223.66"/></g><g id="leaf-4" data-name="leaf"><circle class="cls-2" cx="234.98" cy="83.76" r="23.49"/><circle class="cls-2" cx="363.62" cy="26.82" r="23.49"/></g><circle class="cls-2" cx="305.26" cy="216.7" r="23.49"/></g><g id="left"><g id="branch-4" data-name="branch"><line class="cls-3" x1="182.27" y1="342.38" x2="76.36" y2="172.91"/><line class="cls-3" x1="182.5" y1="355.22" x2="37.16" y2="304.17"/><line class="cls-3" x1="377.03" y1="442.31" x2="186.51" y2="346.39"/></g><g id="leaf-5" data-name="leaf"><circle class="cls-2" cx="72.94" cy="169.72" r="23.49"/><circle class="cls-2" cx="183.6" cy="349.33" r="23.49"/><circle class="cls-2" cx="23.49" cy="301.42" r="23.49"/></g><circle class="cls-2" cx="362.27" cy="426.91" r="23.49"/></g><g id="far-left"><g id="event-further-left-2" data-name="event-further-left"><line class="cls-3" x1="299.34" y1="537.46" x2="176.32" y2="551.37"/><line class="cls-3" x1="295.35" y1="525.25" x2="96.43" y2="450.41"/><circle class="cls-2" cx="84.8" cy="450.41" r="23.49"/><circle class="cls-2" cx="171.3" cy="553.18" r="23.49"/></g><line class="cls-3" x1="418.11" y1="573.58" x2="297.91" y2="529.16"/><circle class="cls-2" cx="299.34" cy="529.69" r="23.49"/></g><g id="trunk"><line id="trunk-2" data-name="trunk" class="cls-4" x1="417.87" y1="705.02" x2="415.66" y2="571.59"/><circle class="cls-2" cx="415.28" cy="572.56" r="23.49"/></g></g><path class="cls-5" d="M347,776.12a72,72,0,1,0,72-72,72,72,0,0,0-72,72"/><path class="cls-5" d="M380.27,798.28V756.66A2.7,2.7,0,0,1,383,754h0a2.68,2.68,0,0,1,2.45,1.59l8.35,18.55a3.44,3.44,0,0,0,3.13,2h0a3.42,3.42,0,0,0,3.12-2l8.35-18.55a2.68,2.68,0,0,1,2.45-1.59h0a2.69,2.69,0,0,1,2.69,2.7v41.62M446.74,754v44.32M435.66,787.2l11.08,11.08,11.07-11.08"/><g id="wikilinks"><path class="cls-6" d="M215.53,853.68H152.69c0-2,.13-9.32.27-21.71s.26-30.49.26-54.32V741.84c0-14.65-.13-29-.4-43.28h62.85v10.26H168.4c-.13,14.24-.26,27-.26,38.34v29.56c0,18,.13,32.22.26,42.6s.27,18.38.27,24H215.8Z"/><path class="cls-6" d="M307.67,853.68H244.83c0-2,.13-9.32.26-21.71s.27-30.49.27-54.32V741.84c0-14.65-.14-29-.4-43.28H307.8v10.26H260.54c-.14,14.24-.27,27-.27,38.34v29.56c0,18,.13,32.22.27,42.6s.26,18.38.26,24h47.14Z"/><path class="cls-6" d="M593.39,853.68H530.55V843.42h47.13c0-6.12.14-15,.27-26.62s.27-24.9.27-40.08V746c0-12.91-.14-25.16-.27-37.14H530.68V698.56h62.85q-.4,21.18-.4,43.54v35.42c0,16.24.13,32.48.26,48.73C593.26,842.49,593.39,851.68,593.39,853.68Z"/><path class="cls-6" d="M685.39,853.68H622.55V843.42h47.13c0-6.12.14-15,.27-26.62s.27-24.9.27-40.08V746c0-12.91-.14-25.16-.27-37.14H622.82V698.56h62.57Q685,719.74,685,742.1v35.42c0,16.24.13,32.48.26,48.73S685.39,851.68,685.39,853.68Z"/></g></g></g></svg>